<svg xmlns="http://www.w3.org/2000/svg" viewBox="0 0 64 64"><g data-name="07-Fever"><path d="M48 63H6l14-3s2 2 7 2 7-2 7-2Z" style="fill:#34c1ad"/><path d="M31 49h-8s0-3 4-3 4 3 4 3Z" style="fill:#8f312c"/><path d="M8 37a7.87 7.87 0 0 0 .24 1.94L8 39s-3-2-3-8 4-8 4-8a8.613 8.613 0 0 1-8-5 43.557 43.557 0 0 0 13-5c7-4 10-4 14-4 5 0 9 5 9 5s.94-1.89 4.66-2c4.03-.11 7.34 4.96 7.34 9v10.89a4.018 4.018 0 0 1-.57 2.06L46 38l-.06-.01A8.1 8.1 0 0 0 46 37v-1a3 3 0 0 0-3-3h-2v-4a7.7 7.7 0 0 1-3-2.85V22a27.484 27.484 0 0 0-3-.94A32.651 32.651 0 0 0 27 20a32.651 32.651 0 0 0-8 1.06 27.484 27.484 0 0 0-3 .94v3.5L13 28v5h-2a3 3 0 0 0-3 3Z" style="fill:#5e3616"/><path d="M27 29a33.008 33.008 0 0 1 11 2v-4.85A7.7 7.7 0 0 0 41 29v4h2a3 3 0 0 1 3 3v1a8.1 8.1 0 0 1-.06.99A6.887 6.887 0 0 1 41 44a13.626 13.626 0 0 1-7 9.25 14.875 14.875 0 0 1-14 0A13.626 13.626 0 0 1 13 44a6.72 6.72 0 0 1-4.76-5.06A7.87 7.87 0 0 1 8 37v-1a3 3 0 0 1 3-3h2v-5l3-2.5V31a33.008 33.008 0 0 1 11-2Zm-4 20h8s0-3-4-3-4 3-4 3Z" style="fill:#d47470"/><path d="M34 53.25V60s-2 2-7 2-7-2-7-2v-6.75a14.875 14.875 0 0 0 14 0Z" style="fill:#f2b59d"/><path d="M34 53.25a14.875 14.875 0 0 1-14 0V60a5.44 5.44 0 0 0 1.328.859L34 55.429Z" style="fill:#ed9776"/><path d="M41 29c-4-2-5-8-5-8a7.458 7.458 0 0 1-6 5l.99-3.98a19.608 19.608 0 0 1-8 6.23A11.365 11.365 0 0 1 19 29v-6l-6 5v5h28Z" style="fill:#d47470"/><path d="M9 23s-4 2-4 8 3 8 3 8l.24-.06A7.87 7.87 0 0 1 8 37v-1a3 3 0 0 1 3-3h2v-5l-5 2c-2-3 1-7 1-7ZM41 29v4h2a3 3 0 0 1 3 3v-5a7.651 7.651 0 0 1-5-2Z" style="fill:#3b220e"/><path d="M28 7h-2a3.667 3.667 0 0 1 1.279-2.693C27.766 3.8 28 3.534 28 3s-.234-.8-.721-1.307L28.721.307A3.667 3.667 0 0 1 30 3a3.667 3.667 0 0 1-1.279 2.693C28.234 6.2 28 6.466 28 7ZM36 7h-2a3.667 3.667 0 0 1 1.279-2.693C35.766 3.8 36 3.534 36 3s-.234-.8-.721-1.307L36.721.307A3.667 3.667 0 0 1 38 3a3.667 3.667 0 0 1-1.279 2.693C36.234 6.2 36 6.466 36 7ZM20 7h-2a3.667 3.667 0 0 1 1.279-2.693C19.766 3.8 20 3.534 20 3s-.234-.8-.721-1.307L20.721.307A3.667 3.667 0 0 1 22 3a3.667 3.667 0 0 1-1.279 2.693C20.234 6.2 20 6.466 20 7Z" style="fill:#c74841"/><path d="M32 36a3.105 3.105 0 0 1 1.38-2.84 8.742 8.742 0 0 0 1.94.6A3.684 3.684 0 0 1 36 36c0 1.66-.9 3-2 3s-2-1.34-2-3ZM20.62 33.16A3.105 3.105 0 0 1 22 36c0 1.66-.9 3-2 3s-2-1.34-2-3a3.684 3.684 0 0 1 .68-2.24 8.742 8.742 0 0 0 1.94-.6Z" style="fill:#5e3616"/><path d="M41 42v-7h1a2 2 0 0 1 2 2v1.117a4 4 0 0 1-2.735 3.8ZM13 42v-7h-1a2 2 0 0 0-2 2v1.117a4 4 0 0 0 2.735 3.8Z" style="fill:#b8514d"/><ellipse cx="27" cy="40" rx="1" ry="2" style="fill:#b54f4a"/><path d="M39 27.442a9.4 9.4 0 0 1-1-1.292V31a33.008 33.008 0 0 0-11-2 33.008 33.008 0 0 0-11 2v-5.5l-1 .833L13 28v2l2-2v5a38.863 38.863 0 0 1 12-2 38.863 38.863 0 0 1 12 2v-3.892A9.289 9.289 0 0 0 41 30v-1a6.836 6.836 0 0 1-2-1.558Z" style="fill:#b8514d"/><path d="M38 35a14.733 14.733 0 0 1-2.874-.259 9.78 9.78 0 0 1-2.158-.67 6.521 6.521 0 0 1-2.006-1.371 1 1 0 0 1 1.438-1.395 4.531 4.531 0 0 0 1.393.945 7.8 7.8 0 0 0 1.718.528A12.7 12.7 0 0 0 38 33a1 1 0 0 1 0 2ZM16 35a1 1 0 0 1 0-2 12.726 12.726 0 0 0 2.486-.221 7.8 7.8 0 0 0 1.722-.53 4.53 4.53 0 0 0 1.392-.944 1 1 0 0 1 1.439 1.39 6.506 6.506 0 0 1-2.005 1.376 9.808 9.808 0 0 1-2.163.67A14.679 14.679 0 0 1 16 35Z" style="fill:#3b220e"/><path d="M38 31a33.008 33.008 0 0 0-11-2 33.008 33.008 0 0 0-11 2v-9a27.484 27.484 0 0 1 3-.94V27a27.673 27.673 0 0 1 8-1 27.673 27.673 0 0 1 8 1v-5.94a27.484 27.484 0 0 1 3 .94v9Z" style="fill:#cee5dd"/><path d="M35 21.06V27a27.673 27.673 0 0 0-8-1 27.673 27.673 0 0 0-8 1v-5.94A32.651 32.651 0 0 1 27 20a32.651 32.651 0 0 1 8 1.06Z" style="fill:#66b9de"/><path d="M27 27a41.263 41.263 0 0 1 9 1v-6.663a33.6 33.6 0 0 0-1-.277V27a27.673 27.673 0 0 0-8-1 27.673 27.673 0 0 0-8 1v-5.94c-.365.1-.693.187-1 .277V28a41.263 41.263 0 0 1 9-1Z" style="fill:#55add4"/><path d="M35 24.984V21.06A32.651 32.651 0 0 0 27 20a31.887 31.887 0 0 0-6.789.774c1.141 2.293 7.246 4.064 14.789 4.21Z" style="fill:#75d5ff"/><path d="M61 8v3h-8V5a4 4 0 0 1 8 0Z" style="fill:#d4d4d4"/><path d="M61 28.54a6 6 0 1 1-8 0V11h8v17.54Z" style="fill:#e7544c"/><path d="M56 5a4 4 0 0 1 2.5-3.7A3.992 3.992 0 0 0 53 5v6h3Z" style="fill:#bfbfbf"/><path d="M54 33a6 6 0 0 1 2-4.46V11h-3v17.54a5.986 5.986 0 0 0 5.5 10.26A6 6 0 0 1 54 33Z" style="fill:#c74841"/><path d="M61 28.54V5a4 4 0 0 0-8 0v23.54a6 6 0 1 0 8 0ZM57 38a4.991 4.991 0 0 1-3.33-8.717 1 1 0 0 0 .33-.743V5a3 3 0 0 1 6 0v23.54a1 1 0 0 0 .331.743A4.992 4.992 0 0 1 57 38Z" style="fill:#e3e3e3"/><path d="M59 25h2v2h-2a1 1 0 0 1-1-1 1 1 0 0 1 1-1ZM59 19h2v2h-2a1 1 0 0 1-1-1 1 1 0 0 1 1-1ZM59 13h2v2h-2a1 1 0 0 1-1-1 1 1 0 0 1 1-1ZM59 7h2v2h-2a1 1 0 0 1-1-1 1 1 0 0 1 1-1Z" style="fill:#e3e3e3"/><path d="M59.917 33.982c.712.165 1.109-.858 1.082-1.509a2.374 2.374 0 0 0-1.268-2.214 2.843 2.843 0 0 0-1.794-.2 1.32 1.32 0 0 0-.69.307.772.772 0 0 0-.215.767 1.055 1.055 0 0 0 .279.388l2.037 2.06a1.274 1.274 0 0 0 .569.401Z" style="fill:#fff"/><path d="M34.959 60.206 34 60s-2 2-7 2-7-2-7-2l-.96.206a.975.975 0 0 0 .253.5C19.387 60.8 21.647 63 27 63s7.613-2.2 7.707-2.293a.966.966 0 0 0 .252-.501Z" style="fill:#e3e3e3"/></g></svg>