<svg xmlns="http://www.w3.org/2000/svg" xml:space="preserve" fill="#3639ae" style="enable-background:new 0 0 512.001 512.001" viewBox="0 0 512.001 512.001"><path d="M511.576 241.023c-3.532-61.957-29.88-120.641-74.187-165.241C393.077 31.176 334.569 4.452 272.643.534c-37.648-2.383-74.329 3.222-109.027 16.655-33.354 12.911-63.152 32.339-88.571 57.743-25.42 25.405-44.864 55.192-57.797 88.539C3.794 198.161-1.831 234.838.528 272.482 4.4 334.267 30.989 392.696 75.394 437.001c44.401 44.301 102.89 70.764 164.689 74.514 5.345.324 10.671.486 15.983.486 26.948 0 53.428-4.168 78.917-12.438 20.722-6.723 37.29-22.345 45.457-42.861 7.943-19.952 7.152-42.053-2.063-61.261l.045-.042 21.837-21.838c5.704-5.704 8.369-13.562 7.312-21.558-1.058-7.997-5.674-14.892-12.664-18.916l-73.578-42.363c-10.057-5.791-22.811-4.104-31.019 4.103l-19.038 19.039c-3.106 3.107-8.041 3.356-11.478.582-11.183-9.027-22.198-18.95-32.74-29.493-10.541-10.541-20.464-21.557-29.493-32.741-2.774-3.437-2.524-8.371.581-11.477l19.04-19.04c8.206-8.206 9.893-20.961 4.103-31.018l-42.363-73.578c-4.024-6.99-10.919-11.606-18.916-12.664-7.996-1.06-15.854 1.607-21.559 7.311l-21.837 21.838c-16.059 16.057-16.508 44.973-1.266 81.422 14.358 34.336 41.113 72.093 75.338 106.316 34.224 34.224 71.981 60.979 106.316 75.338 17.727 7.413 33.669 11.114 47.22 11.114 8.054 0 15.262-1.308 21.496-3.922 6.56 14.973 6.91 31.927.79 47.299-6.512 16.356-19.688 28.801-36.15 34.141-28.72 9.317-58.784 13.103-89.363 11.247-58.145-3.528-113.193-28.445-155.004-70.16-41.813-41.719-66.847-96.708-70.49-154.841-2.223-35.461 3.071-69.998 15.734-102.649 12.173-31.389 30.481-59.432 54.415-83.353 23.934-23.92 51.987-42.21 83.383-54.364 32.658-12.644 67.2-17.915 102.665-15.674 58.262 3.687 113.327 28.849 155.053 70.85 41.721 41.998 66.528 97.23 69.852 155.524 2.412 42.314-6.231 84.474-24.994 121.919a7.5 7.5 0 0 0 3.346 10.065 7.496 7.496 0 0 0 10.064-3.345c19.937-39.784 29.121-84.562 26.561-129.49zM367.817 384.792c-11.305 11.305-35.009 10.588-65.03-1.967-32.576-13.623-68.622-39.23-101.496-72.106-32.876-32.875-58.483-68.921-72.106-101.497-12.555-30.022-13.272-53.724-1.967-65.028l9.594-9.595 2.837 4.928a7.496 7.496 0 0 0 10.242 2.758 7.5 7.5 0 0 0 2.758-10.242l-4.853-8.429 1.259-1.259a10.625 10.625 0 0 1 7.551-3.141c.475 0 .953.031 1.434.095a10.64 10.64 0 0 1 7.883 5.278l42.363 73.578a10.733 10.733 0 0 1-1.71 12.927l-5.339 5.339-31.886-55.382a7.5 7.5 0 0 0-13 7.485l33.901 58.882-2.716 2.716c-8.541 8.542-9.248 22.086-1.646 31.505 9.362 11.597 19.644 23.011 30.559 33.925 10.917 10.917 22.332 21.199 33.925 30.558 9.418 7.604 22.962 6.896 31.505-1.646l1.699-1.699 13.018 7.43a7.498 7.498 0 0 0 10.232-2.796 7.498 7.498 0 0 0-2.796-10.231l-9.458-5.398 6.345-6.345a10.739 10.739 0 0 1 12.927-1.71l73.578 42.363a10.638 10.638 0 0 1 5.278 7.883c.44 3.333-.67 6.607-3.048 8.985l-1.965 1.965-55.822-31.859a7.499 7.499 0 0 0-10.231 2.796 7.498 7.498 0 0 0 2.796 10.231l52.262 29.827-8.877 8.876z"/></svg>