<svg xmlns="http://www.w3.org/2000/svg" viewBox="0 0 64 64"><g data-name="03-Difficulty Breathing"><circle cx="6.5" cy="9.5" r="1.5" style="fill:#34c1ad"/><circle cx="6.5" cy="28.5" r="1.5" style="fill:#34c1ad"/><path d="M19 12h9c5 0 6 4 6 7v17l1.9 1.27a2.451 2.451 0 0 1 1.1 2.05v.21A2.475 2.475 0 0 1 34.53 42a2.242 2.242 0 0 1-.52-.06 2.44 2.44 0 0 1-1.69-1.31L32 40l-.32.63a2.44 2.44 0 0 1-1.69 1.31 2.242 2.242 0 0 1-.52.06A2.458 2.458 0 0 1 27 39.53v-.21a2.451 2.451 0 0 1 1.1-2.05L30 36V21.42c0-1.48-.52-2.42-2-2.42h-7v-4h-1.56a1.438 1.438 0 0 1-1.08-2.39c.15-.17.35-.4.56-.67Z" style="fill:#ff5d54"/><circle cx="23.5" cy="46.5" r="1.5" style="fill:#34c1ad"/><circle cx="40.5" cy="50.5" r="1.5" style="fill:#34c1ad"/><path d="M20.24 37.25c1.55-2.07 4.24-5.25 6.09-5.25A3.946 3.946 0 0 1 30 34v2l-1.9 1.27a2.451 2.451 0 0 0-1.1 2.05v.21A2.458 2.458 0 0 0 29.47 42a2.242 2.242 0 0 0 .52-.06L30 42v7.05a3.907 3.907 0 0 1-1.45 3.08l-4.06 3.16a3.292 3.292 0 0 1-2.02.71 3.491 3.491 0 0 1-3.2-2.32 4.131 4.131 0 0 1-.27-1.47V41.05a6.311 6.311 0 0 1 1.24-3.8ZM23.5 48a1.5 1.5 0 1 0-1.5-1.5 1.5 1.5 0 0 0 1.5 1.5ZM39 50.5a1.5 1.5 0 1 0 1.5-1.5 1.5 1.5 0 0 0-1.5 1.5Zm6-9.45v11.16a4.131 4.131 0 0 1-.27 1.47 3.491 3.491 0 0 1-3.2 2.32 3.292 3.292 0 0 1-2.02-.71l-4.06-3.16A3.907 3.907 0 0 1 34 49.05V42l.01-.06a2.242 2.242 0 0 0 .52.06A2.475 2.475 0 0 0 37 39.53v-.21a2.451 2.451 0 0 0-1.1-2.05L34 36v-2a3.946 3.946 0 0 1 3.67-2c1.85 0 4.54 3.18 6.09 5.25a6.311 6.311 0 0 1 1.24 3.8Z" style="fill:#e7544c"/><path d="m56 41-1.09-4.9a7 7 0 0 0-4.96-5.22L37 27v-8c3-2 4-4 4-6V9a8 8 0 0 0-8-8h-5a7.158 7.158 0 0 0-5.94 3.07A5.489 5.489 0 0 0 21 7a8.846 8.846 0 0 1-2.08 4.94L19 12h9c5 0 6 4 6 7v15a3.946 3.946 0 0 1 3.67-2c1.85 0 4.54 3.18 6.09 5.25a6.311 6.311 0 0 1 1.24 3.8v11.16a4.131 4.131 0 0 1-.27 1.47 3.491 3.491 0 0 1-3.2 2.32 3.292 3.292 0 0 1-2.02-.71l-4.06-3.16A3.907 3.907 0 0 1 34 49.05V42l.01-.06a2.44 2.44 0 0 1-1.69-1.31L32 40l-.32.63a2.44 2.44 0 0 1-1.69 1.31L30 42v7.05a3.907 3.907 0 0 1-1.45 3.08l-4.06 3.16a3.292 3.292 0 0 1-2.02.71 3.491 3.491 0 0 1-3.2-2.32 4.131 4.131 0 0 1-.27-1.47V41.05a6.311 6.311 0 0 1 1.24-3.8c1.55-2.07 4.24-5.25 6.09-5.25A3.946 3.946 0 0 1 30 34V21.42c0-1.48-.52-2.42-2-2.42h-7v1a2.006 2.006 0 0 0 2 2h4v5l-12.95 3.88a7 7 0 0 0-4.96 5.22L8 41 4 63h10l2-10 .69 1.71L20 63h24l3.31-8.29L48 53l2 10h10Z" style="fill:#f2c4b2"/><path d="m28.55 52.13-4.06 3.16a3.292 3.292 0 0 1-2.02.71 3.491 3.491 0 0 1-3.2-2.32 4.131 4.131 0 0 1-.27-1.47v3a4.131 4.131 0 0 0 .27 1.47 3.491 3.491 0 0 0 3.2 2.32 3.292 3.292 0 0 0 2.02-.71l4.06-3.16A3.907 3.907 0 0 0 30 52.05v-3a3.907 3.907 0 0 1-1.45 3.08ZM41.53 56a3.292 3.292 0 0 1-2.02-.71l-4.06-3.16A3.907 3.907 0 0 1 34 49.05v3a3.907 3.907 0 0 0 1.45 3.08l4.06 3.16a3.292 3.292 0 0 0 2.02.71 3.491 3.491 0 0 0 3.2-2.32 4.131 4.131 0 0 0 .27-1.47v-3a4.131 4.131 0 0 1-.27 1.47 3.491 3.491 0 0 1-3.2 2.32Z" style="fill:#f2b59d"/><circle cx="30" cy="17" r="1" style="fill:#34c1ad"/><circle cx="27" cy="15" r="1" style="fill:#34c1ad"/><circle cx="3" cy="24" r="1" style="fill:#21abab"/><circle cx="6" cy="19" r="1" style="fill:#21abab"/><circle cx="3" cy="14" r="1" style="fill:#21abab"/><path d="M16 17a1 1 0 0 1-.554-.168l-6-4a1 1 0 0 1 1.11-1.664l6 4A1 1 0 0 1 16 17ZM10 27a1 1 0 0 1-.556-1.832l6-4a1 1 0 1 1 1.11 1.664l-6 4A1 1 0 0 1 10 27ZM16 20H9a1 1 0 0 1 0-2h7a1 1 0 0 1 0 2Z" style="fill:#21abab"/><path d="m25.874 49.9-3.266 2.612A2.22 2.22 0 0 1 19 50.779v1.431a4.131 4.131 0 0 0 .27 1.47 3.491 3.491 0 0 0 3.2 2.32 3.292 3.292 0 0 0 2.02-.71l4.06-3.16A3.907 3.907 0 0 0 30 49.05V42l-.01-.06a2.242 2.242 0 0 1-.52.06A2.458 2.458 0 0 1 27 39.53v8.028a3 3 0 0 1-1.126 2.342ZM42.779 53a2.219 2.219 0 0 1-1.387-.487l-.67-.535a1.458 1.458 0 0 1-1.711-1.369l-.885-.708A3 3 0 0 1 37 47.558V39.53A2.475 2.475 0 0 1 34.53 42a2.242 2.242 0 0 1-.52-.06L34 42v7.05a3.907 3.907 0 0 0 1.45 3.08l4.06 3.16a3.292 3.292 0 0 0 2.02.71 3.491 3.491 0 0 0 3.2-2.32 4.131 4.131 0 0 0 .27-1.47v-1.431A2.221 2.221 0 0 1 42.779 53Z" style="fill:#c74841"/><circle cx="40" cy="39" r="1" style="fill:#34c1ad"/><circle cx="41" cy="44" r="1" style="fill:#34c1ad"/><circle cx="22" cy="42" r="1" style="fill:#34c1ad"/><circle cx="24" cy="38" r="1" style="fill:#34c1ad"/><circle cx="24" cy="51" r="1" style="fill:#34c1ad"/><circle cx="37" cy="46" r="1" style="fill:#34c1ad"/><circle cx="42.5" cy="46.5" r=".5" style="fill:#c74841"/><circle cx="20.5" cy="46.5" r=".5" style="fill:#c74841"/><circle cx="38.5" cy="41.5" r=".5" style="fill:#c74841"/><circle cx="25.5" cy="41.5" r=".5" style="fill:#c74841"/><circle cx="26.5" cy="35.5" r=".5" style="fill:#c74841"/><circle cx="41.5" cy="36.5" r=".5" style="fill:#c74841"/><circle cx="32.5" cy="25.5" r=".5" style="fill:#c74841"/><circle cx="31.5" cy="29.5" r=".5" style="fill:#34c1ad"/><circle cx="31.5" cy="20.5" r=".5" style="fill:#34c1ad"/><circle cx="25.5" cy="17.5" r=".5" style="fill:#c74841"/><circle cx="23.5" cy="14.5" r=".5" style="fill:#34c1ad"/><circle cx="36.5" cy="35.5" r=".5" style="fill:#c74841"/><path d="M11.757 56.97A4 4 0 0 1 7.877 60H4.545L4 63h10l2-10V40ZM56.123 60a4 4 0 0 1-3.88-3.03L48 40v13l2 10h10l-.545-3Z" style="fill:#f2b59d"/><circle cx="40.5" cy="50.5" r="1" style="fill:#13969d"/><circle cx="23.5" cy="46.5" r="1" style="fill:#13969d"/><path d="M27 22h3v5h-3zM37 19l-3 2v6h3v-8z" style="fill:#f2b59d"/></g></svg>