<svg xmlns="http://www.w3.org/2000/svg" width="457pt" height="457pt" viewBox="0 0 457.102 457"><path d="M321.547 284.258c-11.035-11.04-28.961-11.04-40 0l-21.488 21.285h-.004l-.024.016c-8.277 5.27-39.02-6.614-70.41-38.028-31.41-31.398-43.312-62.168-38.027-70.41l.324-.504c.043-.062.105-.117.148-.183l20.82-20.82c5.348-5.348 8.286-12.446 8.286-20.009s-2.938-14.66-8.285-20L87.359 50.078c-11.007-11.027-28.96-11.055-39.988 0L14.914 82.531c-20.57 20.563-19.84 58.86 2.055 107.832 20.68 46.258 58 97.66 105.09 144.742 47.078 47.079 98.48 84.403 144.738 105.079 25.289 11.304 47.726 16.964 66.351 16.964 17.438 0 31.524-4.964 41.473-14.91l32.453-32.457c11.028-11.023 11.028-28.96 0-39.988zM60.297 63.008c3.887-3.895 10.234-3.895 14.137 0l85.527 85.535a9.893 9.893 0 0 1 2.926 7.062 9.937 9.937 0 0 1-2.926 7.07l-16.324 16.321-99.668-99.668zm301.394 366.3c-28.882 28.86-126.867-7.292-226.714-107.132-45.543-45.543-81.528-95.008-101.313-139.278-18.312-40.953-20.43-72.82-5.82-87.437l3.199-3.203L133.211 194.43c-6.012 23.11 16.976 59.535 43.48 86.03 23.625 23.626 55.168 44.548 78.106 44.548 2.812 0 5.496-.317 8.02-.977L364.894 426.11zm32.457-32.453-16.324 16.329-99.668-99.668 16.32-16.332c3.895-3.891 10.25-3.891 14.145 0l85.527 85.535c3.891 3.894 3.891 10.242 0 14.136zM403.71 53.371C369.317 18.981 323.685.051 275.192.051h-.18c-5.042.008-9.14 4.097-9.132 9.152.008 5.043 4.098 9.133 9.144 9.133h.168c43.606 0 84.653 17.035 115.59 47.965 30.973 30.98 48.035 72.117 48.035 115.832 0 5.05 4.09 9.14 9.145 9.14 5.05 0 9.14-4.09 9.14-9.14 0-48.602-18.964-94.332-53.39-128.762zm0 0"/><path d="M275.059 79.871c56.355 0 102.203 45.848 102.203 102.2 0 5.05 4.09 9.14 9.144 9.14s9.14-4.09 9.14-9.14c0-66.438-54.05-120.485-120.487-120.485a9.139 9.139 0 0 0-9.145 9.144c0 5.051 4.09 9.141 9.145 9.141zM275.059 141.445c22.402 0 40.625 18.223 40.625 40.625 0 5.051 4.09 9.14 9.14 9.14a9.138 9.138 0 0 0 9.145-9.14c0-32.484-26.43-58.914-58.91-58.914a9.139 9.139 0 0 0-9.145 9.145 9.139 9.139 0 0 0 9.145 9.144zm0 0"/></svg>